<svg width="24" height="21" viewBox="0 0 24 21" fill="none" xmlns="http://www.w3.org/2000/svg">
<path fill-rule="evenodd" clip-rule="evenodd" d="M19.018 6.24801L19.0172 6.24851L18.0336 4.50706L18.0325 4.50504L18.0345 4.50394C18.567 4.2034 19.1613 4.02897 19.7718 3.99407C19.8603 3.98901 19.9489 3.9869 20.0373 3.98772C20.559 3.99258 21.0757 4.09954 21.5579 4.3035C22.1218 4.54201 22.6234 4.90681 23.0241 5.36979C23.4248 5.83277 23.7139 6.38158 23.8692 6.97394C24.0245 7.56631 24.0417 8.18642 23.9197 8.78651C23.7976 9.3866 23.5395 9.95066 23.1651 10.4352C22.8451 10.8496 22.4474 11.1963 21.9952 11.4567C21.9185 11.5008 21.8403 11.5424 21.7606 11.5815C21.2108 11.851 20.6066 11.9908 19.9944 11.9899V11.9897H0V9.98975H19.9972L19.9972 9.98746C20.303 9.98789 20.6049 9.91809 20.8795 9.78345C21.1541 9.6488 21.3941 9.45291 21.5811 9.21085C21.7681 8.96878 21.897 8.68702 21.958 8.38725C22.019 8.08748 22.0104 7.77772 21.9328 7.48181C21.8552 7.1859 21.7108 6.91175 21.5106 6.68048C21.3105 6.4492 21.0599 6.26698 20.7782 6.14783C20.4966 6.02869 20.1913 5.9758 19.886 5.99326C19.581 6.0107 19.2841 6.09785 19.018 6.24801ZM13.2058 20.7506L0 16.0525V13.998L14.5239 13.9981V14.0011C15.0376 14.0043 15.5443 14.1207 16.008 14.3419C16.1866 14.4271 16.357 14.527 16.5178 14.6404C16.7752 14.8219 17.0076 15.0379 17.2083 15.283C17.5344 15.6811 17.7686 16.1463 17.8943 16.6454C18.0201 17.1445 18.0342 17.6652 17.9357 18.1703C17.8372 18.6755 17.6286 19.1527 17.3246 19.568C17.0206 19.9833 16.6288 20.3264 16.1771 20.5728C15.8991 20.7245 15.6026 20.8373 15.2959 20.9088C15.1043 20.9534 14.9088 20.982 14.7113 20.9938C14.1977 21.0246 13.6836 20.9417 13.2057 20.751L13.2058 20.7506ZM5.8151 15.9982L14.5103 15.9983L14.5103 16.0016L14.5103 16.002L14.5112 16.002C14.7312 16.0034 14.9483 16.0532 15.1468 16.1479C15.3457 16.2428 15.5212 16.3804 15.6608 16.5509C15.8005 16.7214 15.9008 16.9206 15.9546 17.1344C16.0085 17.3481 16.0145 17.571 15.9723 17.7874C15.9302 18.0037 15.8408 18.2081 15.7106 18.3859C15.5805 18.5637 15.4127 18.7106 15.2193 18.8162C15.0258 18.9217 14.8115 18.9833 14.5916 18.9964C14.3847 19.0089 14.1776 18.9782 13.9835 18.9065L13.9842 18.9045L5.8151 15.9982Z" fill="url(#paint0_linear_3_1706)"/>
<path fill-rule="evenodd" clip-rule="evenodd" d="M7 2L6.25648 2.52045L6.41421 3.41421L5.52045 3.25648L5 4L4.47955 3.25648L3.58579 3.41421L3.74352 2.52045L3 2L3.74352 1.47955L3.58579 0.585786L4.47955 0.743524L5 0L5.52045 0.743524L6.41421 0.585786L6.25648 1.47955L7 2ZM10.1716 6L9.42811 6.52045L9.58584 7.41421L8.69208 7.25648L8.17163 8L7.65118 7.25648L6.75742 7.41421L6.91515 6.52045L6.17163 6L6.91515 5.47955L6.75742 4.58579L7.65118 4.74352L8.17163 4L8.69208 4.74352L9.58584 4.58579L9.42811 5.47955L10.1716 6ZM15.4281 6.52045L16.1716 6L15.4281 5.47955L15.5858 4.58579L14.6921 4.74352L14.1716 4L13.6512 4.74352L12.7574 4.58579L12.9152 5.47955L12.1716 6L12.9152 6.52045L12.7574 7.41421L13.6512 7.25648L14.1716 8L14.6921 7.25648L15.5858 7.41421L15.4281 6.52045ZM13 2L12.2565 2.52045L12.4142 3.41421L11.5204 3.25648L11 4L10.4796 3.25648L9.58579 3.41421L9.74352 2.52045L9 2L9.74352 1.47955L9.58579 0.585786L10.4796 0.743524L11 0L11.5204 0.743524L12.4142 0.585786L12.2565 1.47955L13 2ZM3.25648 6.52045L4 6L3.25648 5.47955L3.41421 4.58579L2.52045 4.74352L2 4L1.47955 4.74352L0.585786 4.58579L0.743524 5.47955L0 6L0.743524 6.52045L0.585786 7.41421L1.47955 7.25648L2 8L2.52045 7.25648L3.41421 7.41421L3.25648 6.52045Z" fill="url(#paint1_linear_3_1706)"/>
<defs>
<linearGradient id="paint0_linear_3_1706" x1="12" y1="3.98755" x2="12" y2="21.0001" gradientUnits="userSpaceOnUse">
<stop stop-color="#CED3EA"/>
<stop offset="1" stop-color="#7E83A9"/>
</linearGradient>
<linearGradient id="paint1_linear_3_1706" x1="8.08582" y1="0" x2="8.08582" y2="8" gradientUnits="userSpaceOnUse">
<stop stop-color="#B2D4F7"/>
<stop offset="1" stop-color="#D9E2F3"/>
</linearGradient>
</defs>
</svg>
