<svg width="28" height="28" viewBox="0 0 28 28" fill="none" xmlns="http://www.w3.org/2000/svg">
<path fill-rule="evenodd" clip-rule="evenodd" d="M6 20.9107C2.44938 19.1323 0 15.3628 0 11C0 4.92487 4.74949 0 10.6083 0C15.469 0 19.5661 3.38976 20.821 8.01387C20.9626 8.00467 21.1054 8.00001 21.2493 8.00001C24.9776 8.00001 28 11.134 28 15C28 18.6028 25.375 21.57 22 21.9572V19.937C24.2205 19.5615 26 17.5486 26 15C26 12.1696 23.8053 10 21.2493 10C20.5272 10 19.8339 10.1732 19.2108 10.4855C19.1791 9.90367 19.0937 9.33674 18.9599 8.78992L18.9569 8.79115C18.0091 4.85004 14.5839 2 10.6083 2C5.92179 2 2 5.96046 2 11C2 14.2291 3.61019 17.0152 6 18.6003V20.9107ZM10.4997 21.0021C10.7419 21.0021 10.9999 20.7921 10.9998 20.456C10.9997 20.272 10.9366 19.9263 10.7412 19.4168C10.6633 19.2136 10.5723 19.0045 10.4721 18.7938C10.173 19.4437 9.99922 20.0277 9.99936 20.456C9.99946 20.7921 10.2576 21.0021 10.4997 21.0021ZM9.29 16.7572C9.90055 15.7302 10.4979 15 10.4979 15C10.4979 15 11.0675 15.7554 11.6632 16.7778C12.3157 17.8977 12.9995 19.3379 12.9998 20.456C13.0002 21.8622 11.8812 23.0021 10.5004 23.0021C9.11952 23.0021 7.99979 21.8622 7.99935 20.456C7.99898 19.229 8.6517 17.8309 9.29 16.7572ZM18.0021 20.456C18.0022 20.7921 17.7442 21.0021 17.5021 21.0021C17.2599 21.0021 17.0018 20.7921 17.0017 20.456C17.0015 20.0277 17.1753 19.4437 17.4744 18.7938C17.5746 19.0045 17.6656 19.2136 17.7435 19.4168C17.9389 19.9263 18.0021 20.272 18.0021 20.456ZM17.5002 15C17.5002 15 16.9029 15.7302 16.2923 16.7572C15.654 17.8309 15.0013 19.229 15.0017 20.456C15.0021 21.8622 16.1218 23.0021 17.5027 23.0021C18.8835 23.0021 20.0025 21.8622 20.0021 20.456C20.0018 19.3379 19.318 17.8977 18.6655 16.7778C18.0699 15.7554 17.5002 15 17.5002 15Z" fill="url(#paint0_linear_3_1756)"/>
<path d="M14 24L15.732 25V27L14 28L12.2679 27V25L14 24Z" fill="url(#paint1_linear_3_1756)"/>
<path d="M20 24L21.732 25V27L20 28L18.2679 27V25L20 24Z" fill="url(#paint2_linear_3_1756)"/>
<path d="M8 24L9.73205 25V27L8 28L6.26794 27V25L8 24Z" fill="url(#paint3_linear_3_1756)"/>
<defs>
<linearGradient id="paint0_linear_3_1756" x1="14" y1="0" x2="14" y2="23.0021" gradientUnits="userSpaceOnUse">
<stop stop-color="#95B6F6"/>
<stop offset="1" stop-color="#5193DE"/>
</linearGradient>
<linearGradient id="paint1_linear_3_1756" x1="14" y1="24" x2="14" y2="28" gradientUnits="userSpaceOnUse">
<stop stop-color="#CED3EA"/>
<stop offset="1" stop-color="#7E83A9"/>
</linearGradient>
<linearGradient id="paint2_linear_3_1756" x1="20" y1="24" x2="20" y2="28" gradientUnits="userSpaceOnUse">
<stop stop-color="#CED3EA"/>
<stop offset="1" stop-color="#7E83A9"/>
</linearGradient>
<linearGradient id="paint3_linear_3_1756" x1="8" y1="24" x2="8" y2="28" gradientUnits="userSpaceOnUse">
<stop stop-color="#CED3EA"/>
<stop offset="1" stop-color="#7E83A9"/>
</linearGradient>
</defs>
</svg>
