<svg width="28" height="28" viewBox="0 0 28 28" fill="none" xmlns="http://www.w3.org/2000/svg">
<path d="M21.1683 0.00976562C24.9738 0.20254 28.0004 3.34876 28.0004 7.20215L27.9906 7.57227C27.9074 9.21575 27.2719 10.7129 26.2679 11.8848C25.9538 11.2541 25.548 10.6776 25.0668 10.1729C25.6542 9.33039 26.0004 8.30702 26.0004 7.20215C26.0004 4.32919 23.6711 2.00013 20.7982 2C19.4838 2 18.2833 2.48791 17.3676 3.29199C16.8417 2.85703 16.2717 2.47364 15.6635 2.15234C16.97 0.824018 18.7879 0 20.7982 0L21.1683 0.00976562Z" fill="url(#paint0_linear_3_1044)"/>
<path d="M11.5 20C11.5 20 14.0013 23.3172 14.002 25.4561L13.9893 25.7168C13.8614 27.0003 12.7971 28.0017 11.5029 28.002C10.2086 28.0018 9.14326 27.0004 9.01465 25.7168L9.00195 25.4561C9.00122 23.0636 11.4829 20.0209 11.5 20ZM11.4746 23.7979C11.1764 24.4465 11.0018 25.0284 11.002 25.4561C11.0021 25.792 11.2599 26.0018 11.502 26.002C11.7441 26.0019 12.0021 25.792 12.002 25.4561C12.0019 25.2721 11.9385 24.9264 11.7432 24.417C11.6657 24.215 11.5742 24.0074 11.4746 23.7979ZM17.5 17C17.5 17 20.0013 20.3172 20.002 22.4561L19.9893 22.7168C19.8614 24.0003 18.7971 25.0017 17.5029 25.002C16.2086 25.0018 15.1433 24.0004 15.0146 22.7168L15.002 22.4561C15.0012 20.0636 17.4829 17.0209 17.5 17ZM17.4746 20.7979C17.1764 21.4465 17.0018 22.0284 17.002 22.4561C17.0021 22.792 17.2599 23.0018 17.502 23.002C17.7441 23.0019 18.0021 22.792 18.002 22.4561C18.0019 22.2721 17.9385 21.9264 17.7432 21.417C17.6657 21.215 17.5742 21.0074 17.4746 20.7979ZM11.1543 0.0146484C15.774 0.257527 19.612 3.56524 20.8193 8.01562C20.9616 8.00631 21.1055 8 21.25 8L21.5967 8.00879C25.1635 8.19627 28 11.2548 28 15L27.9912 15.3604C27.823 18.7989 25.2617 21.5807 22 21.9551V19.9346C24.2204 19.5593 26 17.5486 26 15C26 12.1699 23.8057 10.0004 21.25 10C20.5274 10 19.8334 10.1736 19.21 10.4863C19.1745 9.83592 19.0677 9.20545 18.9053 8.59961C17.8939 4.7585 14.5189 2.00005 10.6084 2C5.92191 2 2 5.96046 2 11C2 15.0655 4.55292 18.427 8 19.5752V21.6631C3.40258 20.4577 0 16.1417 0 11C0 4.92487 4.7496 0 10.6084 0L11.1543 0.0146484Z" fill="url(#paint1_linear_3_1044)"/>
<defs>
<linearGradient id="paint0_linear_3_1044" x1="20.0695" y1="7.25103e-08" x2="22.5299" y2="12.5573" gradientUnits="userSpaceOnUse">
<stop stop-color="#FFBB00"/>
<stop offset="1" stop-color="#FF8800"/>
</linearGradient>
<linearGradient id="paint1_linear_3_1044" x1="14" y1="0" x2="14" y2="28.0021" gradientUnits="userSpaceOnUse">
<stop stop-color="#95B6F6"/>
<stop offset="1" stop-color="#5193DE"/>
</linearGradient>
</defs>
</svg>
