<svg width="28" height="28" viewBox="0 0 28 28" fill="none" xmlns="http://www.w3.org/2000/svg">
<path fill-rule="evenodd" clip-rule="evenodd" d="M7 21.3473C2.91752 19.8163 0 15.7615 0 11C0 4.92487 4.74949 0 10.6083 0C15.469 0 19.5661 3.38976 20.821 8.01387C20.9626 8.00467 21.1054 8.00001 21.2493 8.00001C24.9776 8.00001 28 11.134 28 15C28 18.866 24.9776 22 21.2493 22C21.1658 22 21.0827 21.9984 21 21.9953V20H21.3029V19.9996C23.8359 19.9695 26 17.8105 26 15C26 12.1696 23.8053 10 21.2493 10C20.5272 10 19.8339 10.1732 19.2108 10.4855C19.1791 9.90367 19.0937 9.33674 18.9599 8.78992L18.9569 8.79115C18.0091 4.85004 14.5839 2 10.6083 2C5.92179 2 2 5.96046 2 11C2 14.6616 4.0703 17.7535 7 19.1706V21.3473Z" fill="url(#paint0_linear_3_1489)"/>
<path fill-rule="evenodd" clip-rule="evenodd" d="M15.168 14.4453L16.8321 15.5547L13.8685 20H18.9557L13.4773 27.5855L11.856 26.4145L15.0442 22H10.1315L15.168 14.4453Z" fill="url(#paint1_linear_3_1489)"/>
<path d="M7.82837 22.8284L8.82837 24.3284L7.82837 25.8284L6.82837 24.3284L7.82837 22.8284Z" fill="white"/>
<path d="M7.82837 23.8284L8.82837 25.3284L7.82837 26.8284L6.82837 25.3284L7.82837 23.8284Z" fill="white"/>
<path d="M5.82837 24.8284L7.32837 23.8284L8.82837 24.8284L7.32837 25.8284L5.82837 24.8284Z" fill="white"/>
<path d="M6.82837 24.8284L8.32837 23.8284L9.82837 24.8284L8.32837 25.8284L6.82837 24.8284Z" fill="white"/>
<path d="M6.41426 23.4142L8.18203 23.7678L8.53558 25.5356L6.76781 25.182L6.41426 23.4142Z" fill="white"/>
<path d="M7.12141 24.1213L8.88918 24.4749L9.24273 26.2426L7.47497 25.8891L7.12141 24.1213Z" fill="white"/>
<path d="M6.41423 26.2426L6.76778 24.4749L8.53555 24.1213L8.182 25.8891L6.41423 26.2426Z" fill="white"/>
<path d="M7.12138 25.5355L7.47494 23.7678L9.2427 23.4142L8.88915 25.182L7.12138 25.5355Z" fill="white"/>
<path d="M19.8284 22.8284L20.8284 24.3284L19.8284 25.8284L18.8284 24.3284L19.8284 22.8284Z" fill="white"/>
<path d="M19.8284 23.8284L20.8284 25.3284L19.8284 26.8284L18.8284 25.3284L19.8284 23.8284Z" fill="white"/>
<path d="M17.8284 24.8284L19.3284 23.8284L20.8284 24.8284L19.3284 25.8284L17.8284 24.8284Z" fill="white"/>
<path d="M18.8284 24.8284L20.3284 23.8284L21.8284 24.8284L20.3284 25.8284L18.8284 24.8284Z" fill="white"/>
<path d="M18.4143 23.4142L20.182 23.7678L20.5356 25.5356L18.7678 25.182L18.4143 23.4142Z" fill="white"/>
<path d="M19.1214 24.1213L20.8892 24.4749L21.2427 26.2426L19.475 25.8891L19.1214 24.1213Z" fill="white"/>
<path d="M18.4142 26.2426L18.7678 24.4749L20.5356 24.1213L20.182 25.8891L18.4142 26.2426Z" fill="white"/>
<path d="M19.1214 25.5355L19.4749 23.7678L21.2427 23.4142L20.8892 25.182L19.1214 25.5355Z" fill="white"/>
<defs>
<linearGradient id="paint0_linear_3_1489" x1="14" y1="0" x2="14" y2="22" gradientUnits="userSpaceOnUse">
<stop stop-color="#95B6F6"/>
<stop offset="1" stop-color="#5193DE"/>
</linearGradient>
<linearGradient id="paint1_linear_3_1489" x1="14.5436" y1="14.4453" x2="14.5436" y2="27.5855" gradientUnits="userSpaceOnUse">
<stop stop-color="#F5BD52"/>
<stop offset="1" stop-color="#F5DA79"/>
</linearGradient>
</defs>
</svg>
