<svg width="30" height="30" viewBox="0 0 30 30" fill="none" xmlns="http://www.w3.org/2000/svg">
<rect width="30" height="30" rx="7" fill="white"/>
<path d="M17.2222 17.5081V7.27256C17.2222 6.66984 16.9881 6.0918 16.5713 5.66562C16.1546 5.23943 15.5894 5 15 5C14.4106 5 13.8454 5.23943 13.4287 5.66562C13.0119 6.0918 12.7778 6.66984 12.7778 7.27256V17.5081C12.0642 17.9957 11.523 18.705 11.2338 19.5313C10.9447 20.3575 10.9231 21.257 11.1722 22.0968C11.4213 22.9366 11.9279 23.6722 12.6172 24.195C13.3065 24.7178 14.1419 25 15 25C15.8581 25 16.6935 24.7178 17.3828 24.195C18.0721 23.6722 18.5787 22.9366 18.8278 22.0968C19.0769 21.257 19.0553 20.3575 18.7662 19.5313C18.477 18.705 17.9358 17.9957 17.2222 17.5081Z" stroke="black" stroke-width="2" stroke-linecap="round" stroke-linejoin="round"/>
</svg>
